<?xml version="1.0" standalone="no"?>
<!DOCTYPE svg PUBLIC "-//W3C//DTD SVG 20010904//EN"
 "http://www.w3.org/TR/2001/REC-SVG-20010904/DTD/svg10.dtd">
<svg version="1.0" xmlns="http://www.w3.org/2000/svg"
 width="4375.000000pt" height="1250.000000pt" viewBox="0 0 4375.000000 1250.000000"
 preserveAspectRatio="xMidYMid meet">
<metadata>
Created by potrace 1.16, written by Peter Selinger 2001-2019
</metadata>
<g transform="translate(0.000000,1250.000000) scale(0.100000,-0.100000)"
fill="#000000" stroke="none">
<path d="M16027 9323 c-2 -5 231 -830 517 -1835 l521 -1828 470 0 470 0 290
1018 290 1017 290 -1017 290 -1018 467 0 467 0 20 68 c11 37 99 344 195 682
96 338 321 1129 500 1758 179 628 326 1147 326 1152 0 6 -172 10 -464 10 -434
0 -465 -1 -470 -17 -3 -10 -142 -571 -311 -1248 -168 -676 -307 -1236 -310
-1244 -3 -8 -8 -12 -10 -9 -3 2 -154 567 -336 1254 -182 687 -334 1252 -338
1257 -4 4 -149 6 -322 5 l-314 -3 -330 -1245 c-182 -685 -333 -1252 -337
-1260 -5 -13 -6 -13 -12 0 -3 8 -141 560 -306 1225 -166 666 -305 1227 -311
1248 l-10 37 -464 0 c-255 0 -466 -3 -468 -7z"/>
<path d="M22400 7495 l0 -1835 1050 0 1050 0 0 370 0 370 -630 0 -630 0 0 365
0 365 605 0 605 0 0 370 0 370 -605 0 -605 0 0 360 0 360 630 0 630 0 0 370 0
370 -1050 0 -1050 0 0 -1835z"/>
<path d="M27126 9321 c-8 -12 -1476 -3650 -1476 -3656 0 -3 204 -5 453 -5
l453 0 135 365 134 365 692 0 691 0 26 -67 c14 -38 75 -201 134 -363 l109
-295 456 -3 455 -2 -174 432 c-96 238 -430 1064 -741 1836 l-566 1402 -388 0
c-213 0 -390 -4 -393 -9z m592 -1656 c105 -275 194 -508 198 -517 6 -17 -17
-18 -398 -18 l-405 0 201 524 c111 289 204 522 207 518 3 -4 92 -232 197 -507z"/>
<path d="M30587 9323 c-4 -3 -7 -829 -7 -1835 l0 -1828 1055 0 1055 0 0 370 0
370 -630 0 -630 0 0 1465 0 1465 -418 0 c-230 0 -422 -3 -425 -7z"/>
<path d="M33930 8960 l0 -370 435 0 435 0 0 -1465 0 -1465 420 0 420 0 0 1465
0 1465 435 0 435 0 0 370 0 370 -1290 0 -1290 0 0 -370z"/>
<path d="M37870 7495 l0 -1835 420 0 420 0 0 735 0 735 585 0 585 0 0 -735 0
-735 425 0 425 0 0 1835 0 1835 -422 -2 -423 -3 -3 -727 -2 -728 -585 0 -585
0 0 730 0 730 -420 0 -420 0 0 -1835z"/>
<path d="M39965 4226 c-486 -76 -819 -502 -766 -981 13 -110 56 -252 103 -333
127 -223 364 -396 612 -447 93 -19 285 -21 377 -5 143 26 310 94 435 177 l54
36 0 328 0 329 -95 0 -95 0 -2 -272 -3 -272 -70 -38 c-117 -64 -212 -90 -350
-95 -154 -6 -238 11 -365 73 -80 40 -109 62 -186 138 -152 152 -212 305 -202
515 9 180 66 308 198 441 124 125 257 191 433 213 198 25 418 -38 579 -165 21
-16 42 -28 47 -26 5 1 35 36 67 77 l57 74 -24 19 c-234 186 -510 259 -804 214z"/>
<path d="M17120 3345 l0 -885 105 0 105 0 0 375 0 375 415 0 415 0 0 105 0
105 -415 0 -415 0 0 305 0 305 465 0 465 0 0 100 0 100 -570 0 -570 0 0 -885z"/>
<path d="M20523 3643 c4 -509 7 -598 22 -663 71 -312 302 -505 630 -528 258
-18 438 25 592 142 105 79 177 192 225 347 22 73 22 85 26 682 l3 607 -105 0
-106 0 0 -547 c-1 -608 -5 -657 -61 -772 -100 -203 -347 -301 -616 -245 -197
40 -332 171 -378 366 -12 52 -15 163 -15 631 l0 567 -111 0 -111 0 5 -587z"/>
<path d="M24530 3345 l0 -885 105 0 105 0 2 698 3 697 520 -697 520 -697 113
-1 112 0 0 885 0 885 -105 0 -105 0 -2 -701 -3 -701 -521 699 -521 698 -112 3
-111 3 0 -886z"/>
<path d="M28560 3345 l0 -886 453 3 c504 5 505 5 664 78 106 49 161 88 252
174 118 114 196 246 237 401 26 98 27 362 1 454 -43 157 -99 259 -206 373
-120 128 -239 203 -408 255 l-88 27 -452 4 -453 3 0 -886z m830 674 c157 -25
275 -85 390 -199 133 -132 193 -279 194 -475 1 -130 -13 -192 -65 -300 -70
-146 -175 -250 -324 -321 -118 -57 -173 -64 -512 -64 l-303 0 0 685 0 685 278
0 c152 0 306 -5 342 -11z"/>
<path d="M32570 3345 l0 -885 105 0 105 0 0 885 0 885 -105 0 -105 0 0 -885z"/>
<path d="M35330 3345 l0 -885 105 0 105 0 2 701 3 701 524 -701 524 -701 108
0 109 0 0 885 0 885 -105 0 -105 0 -2 -698 -3 -697 -520 697 -520 698 -112 0
-113 0 0 -885z"/>
</g>
</svg>
